<svg xmlns="http://www.w3.org/2000/svg" viewBox="0 0 48 48"><defs><style>.cls-1{fill:#1e0f00;}</style></defs><title>Asset 201</title><g id="Layer_2" data-name="Layer 2"><g id="_1" data-name="1"><path class="cls-1" d="M25,48H8a1,1,0,0,1-1-.89l-4-35a1,1,0,0,1,.24-.78A1,1,0,0,1,4,11H38a1,1,0,0,1,.75.33,1,1,0,0,1,.24.78l-1.06,9.34-2-.23L36.88,13H5.12L8.89,46H25Z"/><path class="cls-1" d="M41,13H1a1,1,0,0,1-.77-.37A1,1,0,0,1,0,11.8l1-5A1,1,0,0,1,2,6H40a1,1,0,0,1,1,.8l1,5a1,1,0,0,1-.21.83A1,1,0,0,1,41,13ZM2.22,11H39.78l-.6-3H2.82Z"/><path class="cls-1" d="M35,8H7a1,1,0,0,1-.81-.42,1,1,0,0,1-.14-.9l2-6A1,1,0,0,1,9,0H33a1,1,0,0,1,1,.68l2,6a1,1,0,0,1-.14.9A1,1,0,0,1,35,8ZM8.39,6H33.61L32.28,2H9.72Z"/><path class="cls-1" d="M34,48A14,14,0,1,1,48,34,14,14,0,0,1,34,48Zm0-26A12,12,0,1,0,46,34,12,12,0,0,0,34,22Z"/><path class="cls-1" d="M34,35a.91.91,0,0,1-.45-.11l-6-3,.9-1.78,5.35,2.67,6.49-6.49,1.42,1.42-7,7A1,1,0,0,1,34,35Z"/><rect class="cls-1" x="24" y="33" width="2" height="2"/><rect class="cls-1" x="33" y="42" width="2" height="2"/><rect class="cls-1" x="33" y="24" width="2" height="2"/><rect class="cls-1" x="42" y="33" width="2" height="2"/><rect class="cls-1" x="5" y="20" width="20" height="2"/><rect class="cls-1" x="7" y="33" width="12" height="2"/></g></g></svg>